<svg xmlns="http://www.w3.org/2000/svg" width="35" height="35" viewBox="0 0 35 35"><path data-name="Фигура 561" d="M17.5 35A17.5 17.5 0 1 1 35 17.5 17.519 17.519 0 0 1 17.5 35zm0-32.47A14.97 14.97 0 1 0 32.473 17.5 14.984 14.984 0 0 0 17.5 2.53zm1.371 8.82a1.757 1.757 0 0 1-.615.29 3 3 0 0 1-.748.09 3.066 3.066 0 0 1-.754-.09 1.77 1.77 0 0 1-.621-.29 1.427 1.427 0 0 1-.415-.55 2.328 2.328 0 0 1 0-1.66 1.469 1.469 0 0 1 .415-.54 1.611 1.611 0 0 1 .621-.29 3.646 3.646 0 0 1 .754-.08 3.566 3.566 0 0 1 .748.08 1.6 1.6 0 0 1 .615.29 1.5 1.5 0 0 1 .42.54 2.259 2.259 0 0 1 0 1.66 1.457 1.457 0 0 1-.422.55zm.416 15.08h-3.569V13.36h3.569v13.07z" fill="#e31c3d" fill-rule="evenodd"/></svg>