<svg xmlns="http://www.w3.org/2000/svg" width="23" height="25" viewBox="0 0 23 25"><path data-name="Forma 1" d="M22.256 13.97a4.358 4.358 0 0 0 .733-2.45 3.887 3.887 0 0 0-3.829-3.83h-2.633a6.682 6.682 0 0 0 .718-2.89 6.281 6.281 0 0 0-.524-2.8A3.264 3.264 0 0 0 15.195.48a5.03 5.03 0 0 0-2.259-.49 1.887 1.887 0 0 0-1.346.55 3.7 3.7 0 0 0-.928 1.63c-.189.66-.341 1.29-.456 1.9a2.608 2.608 0 0 1-.531 1.29q-.733.8-1.6 1.92a13.344 13.344 0 0 1-2.049 2.33h-4.1a1.914 1.914 0 0 0-1.915 1.92v9.63a1.914 1.914 0 0 0 1.915 1.92h4.308a11.054 11.054 0 0 1 2.064.6q1.841.645 3.239.99a12.312 12.312 0 0 0 2.835.33h1.93a4.742 4.742 0 0 0 3.4-1.21 72.538 72.538 0 0 0 2.169-5.97 4.627 4.627 0 0 0-.045-.65 4.316 4.316 0 0 0 .569-2.16 3.954 3.954 0 0 0-.139-1.04zm-18.7 6.9a.926.926 0 0 1-1.346 0 .933.933 0 0 1-.284-.68.911.911 0 0 1 .284-.67.926.926 0 0 1 1.346 0 .912.912 0 0 1 .285.67.934.934 0 0 1-.285.68zm17.2-8.12a1 1 0 0 1-.8.71 2.07 2.07 0 0 1 .374.71 2.761 2.761 0 0 1 .149.84 2.384 2.384 0 0 1-.793 1.79 2.058 2.058 0 0 1 .27 1.03 2.557 2.557 0 0 1-.262 1.11 1.7 1.7 0 0 1-.71.79 5.233 5.233 0 0 1 .074.84c0 1.67-.958 2.51-2.873 2.51h-1.809a16.531 16.531 0 0 1-5.117-1.1c-.05-.02-.194-.07-.434-.16s-.416-.14-.531-.18l-.524-.18c-.234-.07-.423-.13-.568-.16a4.709 4.709 0 0 0-.494-.1 2.923 2.923 0 0 0-.471-.04h-.478v-9.63h.478a1.264 1.264 0 0 0 .531-.13 2.563 2.563 0 0 0 .6-.41c.2-.18.4-.35.576-.53s.379-.4.6-.66.392-.48.516-.64.282-.37.472-.62.3-.4.344-.45c.548-.68.932-1.14 1.151-1.37a3.827 3.827 0 0 0 .89-1.64q.278-1.005.457-1.89a2.5 2.5 0 0 1 .568-1.28 2.174 2.174 0 0 1 1.915.71 3.944 3.944 0 0 1 .479 2.18 6.139 6.139 0 0 1-.718 2.41 6.176 6.176 0 0 0-.718 2.4h5.266a1.992 1.992 0 0 1 1.915 1.92 2.937 2.937 0 0 1-.328 1.22z" fill="#fff" fill-rule="evenodd"/></svg>