<svg xmlns="http://www.w3.org/2000/svg" width="30" height="33.97" viewBox="0 0 30 33.97"><path d="M18.06 15.89a.742.742 0 0 0-1.05 0l-1.39 1.42a1.8 1.8 0 0 0-1.24 0l-2.86-2.91a.742.742 0 0 0-1.05 0 .767.767 0 0 0 0 1.07l2.86 2.9a1.9 1.9 0 0 0-.11.63 1.78 1.78 0 1 0 3.56 0 1.9 1.9 0 0 0-.11-.63l1.39-1.41a.767.767 0 0 0 0-1.07zM15 19.45a.45.45 0 1 1 .44-.45.446.446 0 0 1-.44.45zm8.77-11.87l.84-1.22 3.37 2.4a.832.832 0 0 0 .43.13.57.57 0 0 0 .13-.01.767.767 0 0 0 .48-.31A5.512 5.512 0 0 0 27.7.97a5.337 5.337 0 0 0-7.5 1.34.753.753 0 0 0 .18 1.05l3.01 2.14-.84 1.21a14.109 14.109 0 0 0-15.1 0L6.61 5.5l3.01-2.14a.753.753 0 0 0 .18-1.05A5.337 5.337 0 0 0 2.3.97a5.512 5.512 0 0 0-1.32 7.6.767.767 0 0 0 .48.31.57.57 0 0 0 .13.01.832.832 0 0 0 .43-.13l3.37-2.4.84 1.22a14.582 14.582 0 0 0 .91 23.5l-1.18 1.7a.772.772 0 0 0 .18 1.05.76.76 0 0 0 .43.14.75.75 0 0 0 .61-.32l1.24-1.8a14.1 14.1 0 0 0 13.16 0l1.24 1.8a.737.737 0 0 0 .61.32.706.706 0 0 0 .42-.14.764.764 0 0 0 .19-1.05l-1.18-1.7a14.582 14.582 0 0 0 .91-23.5zM21.9 2.59a3.871 3.871 0 0 1 4.94-.39 3.993 3.993 0 0 1 1.33 4.85zM1.83 7.05A3.993 3.993 0 0 1 3.16 2.2a3.86 3.86 0 0 1 4.94.4zM15 31.97A12.976 12.976 0 1 1 27.79 19 12.9 12.9 0 0 1 15 31.97zm0-23.62A10.651 10.651 0 1 0 25.5 19 10.589 10.589 0 0 0 15 8.35zm6.98 16.66l-.5-.51a.742.742 0 0 0-1.05 0 .767.767 0 0 0 0 1.07l.5.51a9.03 9.03 0 0 1-5.19 2.18v-.72a.74.74 0 1 0-1.48 0v.72a9.03 9.03 0 0 1-5.19-2.18l.5-.51a.767.767 0 0 0 0-1.07.742.742 0 0 0-1.05 0l-.5.51a9.312 9.312 0 0 1-2.15-5.26h.71a.75.75 0 0 0 0-1.5h-.71a9.371 9.371 0 0 1 2.15-5.27l.5.51a.742.742 0 0 0 .53.22.7.7 0 0 0 .52-.22.754.754 0 0 0 0-1.06l-.5-.51a9.03 9.03 0 0 1 5.19-2.18v.72a.74.74 0 1 0 1.48 0v-.72a9.03 9.03 0 0 1 5.19 2.18l-.5.51a.754.754 0 0 0 0 1.06.7.7 0 0 0 .52.22.742.742 0 0 0 .53-.22l.5-.51a9.371 9.371 0 0 1 2.15 5.27h-.71a.75.75 0 0 0 0 1.5h.71a9.312 9.312 0 0 1-2.15 5.26z" fill="#1db3eb" fill-rule="evenodd"/></svg>