<svg xmlns="http://www.w3.org/2000/svg" width="12" height="68" viewBox="0 0 12 68"><path data-name="Фигура 2" d="M8.055 13.677c-5.025 4.636-5.638 8.069-.078 13.3 5.274 4.956 5.009 9.545-.083 14.244-5.23 4.824-5.457 8.623-.081 13.675 5.275 4.958 5.256 8.187-.076 13.105l-3.068-1.624c4.289-3.953 4.3-5.894.058-9.881-6.326-5.945-6.3-11 .1-16.9 4.173-3.848 4.192-7.144.064-11.021-6.264-5.89-6.236-10.675.1-16.519 4.219-3.89 4.234-6.528.061-10.451l3.087-1.6c5.068 4.764 5.248 8.755-.084 13.672z" fill="#1db3eb" fill-rule="evenodd"/></svg>